<svg width="902" height="1000"
                xmlns="http://www.w3.org/2000/svg" > <path style="fill:none" stroke="black" stroke-width="3" d="M 20,20 h 541.436995572503 v 600.0 H 20 V 20 Z" />
   <path style="fill:none" stroke="red" stroke-width="3" d="M 106.594931441,608.26700511 C 122.309302489,544.474500757 143.663956428,414.174917398 160.464157338,354.18281756 C 174.79107912,295.970272217 184.563547872,219.570076697 197.563344267,190.403480144 C 280.146737609,196.616839906 329.793291824,187.055504738 373.136000455,199.452062321 C 415.66433669,203.071495193 426.85441665,200.628378005 463.04874536,201.050645173 C 487.47991724,184.883845015 478.461497003,173.39214565 492.909066547,159.427167155 C 448.631337757,163.22757167 478.159877597,161.055911947 437.893686906,160.332025373 C 313.928111072,160.060567908 245.58115369,150.559556621 202.389254762,147.694172265 C 203.203627158,120.789721257 208.240671237,104.411787515 222.68824078,63.8138154779 C 277.009895787,56.333654211 458.46413039,73.7370939327 527.866755693,69.3032886657 C 548.497523058,42.7306190038 536.493070703,52.8348691023 561.436995573,24.5731307673 C 467.995303618,23.9698919554 421.666562868,36.42677342 348.644504694,31.1484338164 C 315.013940933,34.5868950439 229.776296819,15.6150344114 170.779541021,20.9536978962 C 176.359500031,62.8184714383 154.612740863,147.664010324 140.014361617,195.621495866 C 137.269625023,259.534647981 91.2123417384,445.241716208 74.2613311256,515.820657194 C 46.9346129489,572.615591329 46.2107263747,600.002633387 20,620 C 74.6534363533,616.41072907 71.7277281158,611.614980515 106.594931441,608.26700511 Z" />"
</svg>