<svg width="1245" height="1000"
                xmlns="http://www.w3.org/2000/svg" > <path style="fill:none" stroke="black" stroke-width="3" d="M 20,20 h 747.1815251107355 v 600.0 H 20 V 20 Z" />
   <path style="fill:none" stroke="red" stroke-width="3" d="M 239.815945242,619.505513896 C 244.650667128,598.06803828 247.121156883,590.019023271 251.185510996,567.545535822 C 216.014237494,547.728488969 120.648020067,513.885435766 135.205314538,470.797969285 C 177.920879335,487.161643361 211.551417291,514.416723885 259.154832787,527.16763875 C 286.622428558,431.615470481 335.7665796,287.71608335 358.851048386,203.77256049 C 255.488944763,160.206934702 176.991125126,134.014430417 92.0381548392,97.0633417145 C 58.6466965368,74.5898542652 11.308925101,44.1204806194 21.3768349631,20 C 50.9164544,31.5289521903 78.5434366072,44.5720755208 108.295571292,65.478263018 C 202.280439608,87.6064131897 289.650770839,132.075228781 375.055336027,154.123685735 C 385.601405197,142.090009831 414.795687356,83.0904641751 412.936178938,123.627747683 L 410.571946807,165.121349806 C 491.141790109,196.095447165 588.872239667,245.87714395 660.888344248,270.289833035 C 695.820538096,271.618053333 730.779296351,272.043083829 765.791183417,271.883697393 C 780.082833828,315.582145211 680.094409763,302.67184391 653.662825824,306.523682776 C 552.133666213,269.253821202 488.857251196,245.584935484 391.365881292,215.540592334 C 346.286084363,325.01250933 314.966649726,436.184548308 279.901633848,534.233770737 C 317.171495422,550.916217686 347.853384315,566.881425673 388.576618665,581.544977767 C 393.384776145,617.327232607 295.840277429,578.171298209 264.706793634,570.122283201 C 259.579863282,583.696694651 252.67311773,600.140061945 249.193180549,619.186741025 C 242.897416334,620.807169789 239.842509648,619.505513896 239.842509648,619.505513896 Z" />"
</svg>