<svg version="1.1"
     baseProfile="full"
     width="290" height="240"
     xmlns="http://www.w3.org/2000/svg">
  <g
    id="plane">
     <path
       d="m 85,230 c 1.82109,-8.06953 2.74661,-11.09814 4.28265,-19.55817 -13.23601,-7.4596 -49.14038,-20.2023 -43.66444,-36.4222 16.08313,6.15531 28.74056,16.41963 46.65747,21.22043 10.33691,-35.9701 28.8383,-90.14227 37.5322,-121.73612 -38.9057,-16.40076 -68.45695,-26.261507 -100.44421,-40.167197 -12.56965,-8.464057 -30.3924,-19.929325 -26.60028,-29.005186 11.11852,4.336682 21.51901,9.249185 32.7188,17.124309 35.38113,8.330992 68.27387,25.065858 100.41949,33.369824 3.96913,-4.52979 14.95514,-26.74233 14.26203,-11.484468 l -0.89029,15.617248 c 30.33185,11.66182 67.11898,30.40217 94.22759,39.58966 13.15213,0.50166 26.30508,0.6585 39.4902,0.5985 5.38402,16.45354 -32.26064,11.58584 -42.20773,13.03732 -38.22395,-14.02621 -62.04421,-22.94106 -98.73856,-34.25219 -16.96942,41.20594 -28.76206,83.06353 -41.96394,119.96951 14.02811,6.27646 25.58432,12.28798 40.91394,17.80822 1.80726,13.46666 -34.91023,-1.27159 -46.63431,-4.2976 -1.93165,5.11331 -4.5262,11.30133 -5.84338,18.47124 -2.36595,0.60719 -3.51723,0.11687 -3.51723,0.11687 z"
       style="fill:#000000"
       id="path2505" />
  </g>

</svg>
