<?xml version="1.0" encoding="UTF-8" standalone="no"?>
<svg
   xmlns:dc="http://purl.org/dc/elements/1.1/"
   xmlns:cc="http://creativecommons.org/ns#"
   xmlns:rdf="http://www.w3.org/1999/02/22-rdf-syntax-ns#"
   xmlns:svg="http://www.w3.org/2000/svg"
   xmlns="http://www.w3.org/2000/svg"
   xmlns:sodipodi="http://sodipodi.sourceforge.net/DTD/sodipodi-0.dtd"
   xmlns:inkscape="http://www.inkscape.org/namespaces/inkscape"
   version="1.1"
   id="svg2291"
   width="185"
   height="315"
   viewBox="0 0 185 315"
   sodipodi:docname="haffa-font-pilot.svg"
   inkscape:version="1.0beta2 (2b71d25, 2019-12-03)">
  <metadata
     id="metadata2297">
    <rdf:RDF>
      <cc:Work
         rdf:about="">
        <dc:format>image/svg+xml</dc:format>
        <dc:type
           rdf:resource="http://purl.org/dc/dcmitype/StillImage" />
        <dc:title />
      </cc:Work>
    </rdf:RDF>
  </metadata>
  <defs
     id="defs2295" />
  <sodipodi:namedview
     pagecolor="#ffffff"
     bordercolor="#666666"
     inkscape:document-rotation="0"
     borderopacity="1"
     objecttolerance="10"
     gridtolerance="10"
     guidetolerance="10"
     inkscape:pageopacity="0"
     inkscape:pageshadow="2"
     inkscape:window-width="985"
     inkscape:window-height="711"
     id="namedview2293"
     showgrid="false"
     inkscape:zoom="4.5165043"
     inkscape:cx="92.5"
     inkscape:cy="237.20766"
     inkscape:window-x="0"
     inkscape:window-y="23"
     inkscape:window-maximized="0"
     inkscape:current-layer="g2299" />
  <g
     inkscape:groupmode="layer"
     inkscape:label="Image"
     id="g2299">
    <path
       inkscape:connector-curvature="0"
       d="m 62.628677,247.86765 c -0.147607,-10.19991 -0.295213,-20.39983 -0.44282,-30.59974 -9.499027,3.20026 -21.031614,10.84834 -19.331155,22.05816 0.8047,8.75591 -5.896215,7.48021 -7.21215,0.24811 -5.687784,-7.68401 -8.811572,-15.1159 2.638916,-17.93686 9.697583,-4.86451 18.187364,-11.39432 26.696267,-18.01596 6.368722,-5.31014 16.19459,-9.5794 15.829036,-19.39309 3.086353,-16.39743 4.482286,-33.10869 2.87496,-49.74224 -0.351018,-6.37279 -0.702036,-12.74559 -1.053054,-19.11838 -7.502294,-8.33247 -19.717034,-3.96031 -29.535222,-4.39952 -9.640834,1.71143 -19.303902,3.72375 -28.457471,7.2949 -8.33574,-3.38705 -22.0221952,15.14956 -22.5381352,-0.65146 1.9329837,-7.77862 13.8518982,-5.57625 20.3731242,-7.91576 7.182086,-0.86913 14.087662,-3.06497 20.996762,-4.77826 9.390462,-1.25418 18.710724,-3.08379 28.136534,-3.82804 6.074338,-3.969058 8.695909,-11.933668 6.737403,-18.962442 C 77.567875,77.220309 78.05468,71.878181 74.154433,68.103276 67.133115,64.285271 56.740611,52.603167 65.503001,45.726553 c 7.366621,-0.03827 14.750888,-0.259587 22.125676,-0.420464 -6.028732,12.396661 9.6754,27.873097 19.470643,16.010501 5.31692,-9.377877 9.01665,-19.593332 14.66151,-28.814282 4.44248,-7.317216 10.89859,-18.456556 19.35963,-19.776002 4.30061,12.424042 -13.77725,16.345563 -15.02314,27.982251 -4.56689,11.458604 -8.78948,23.003984 -16.12032,33.057612 -4.91251,10.15378 -0.47388,22.581099 -1.99099,33.638611 -0.17196,20.91265 -0.30029,41.94673 -2.97175,62.70021 -2.63704,12.37482 -10.052403,23.13314 -19.92841,30.88126 -10.396901,7.78809 -17.397531,17.53928 -14.917878,31.06136 0.531867,10.37637 -1.175861,20.74783 1.936052,30.93619 -2.257465,8.70807 6.033915,6.55423 10.303752,9.60688 -2.312291,4.89753 -16.328766,3.1736 -19.779099,1.54011 0,-8.75438 0,-17.50876 0,-26.26314 z M 1.1286771,1.3676466 c 0.5101179,-4.0419436 2.8059458,3.9235584 0,0 z"
       style="fill:#000000"
       id="path2303" />
  </g>
</svg>
