<?xml version="1.0" encoding="UTF-8" standalone="no"?>
<svg
   xmlns="http://www.w3.org/2000/svg"
   version="1.1"
   id="svg159"
   width="233.30176"
   height="200"
   viewBox="0 0 233.30176 200">
  <g
     id="g167"
     transform="translate(136.94005,65.687287)">
    <path
       d="m -135.01024,132.70382 c 10.54609,3.28331 21.33905,-3.94871 24.48074,-14.05748 4.83401,-12.31659 3.9121,-25.82625 7.61268,-38.447441 4.573935,-21.167941 9.167168,-42.343603 14.707323,-63.284024 19.235095,-5.954538 39.279958,2.222467 58.889842,0.247879 18.340853,0.452088 36.9701078,-1.646062 55.092227,2.271167 0.790803,20.083306 -5.016041,39.717921 -8.910998,59.261021 -2.763164,11.181582 -4.782812,22.665968 -8.1356686,33.631268 -2.3256387,7.99989 -9.35474886,14.56234 -12.7824555,20.60349 9.4996704,3.40853 20.1369771,1.19488 29.9556781,-0.006 4.274571,-10.41031 2.242043,-25.10932 4.4021,-37.099568 0.325371,-13.547194 7.011616,-25.690748 8.520576,-38.895347 1.485797,-15.289763 4.23731,-30.443234 8.0051,-45.294194 1.084922,-13.9603685 4.103866,-27.680181 6.002906,-41.514128 2.50087,-10.587528 7.267076,-20.619131 14.015169,-29.145285 0.01284,-11.146878 -18.523894,-1.562864 -23.464886,3.334707 -7.88075,7.836575 -8.255467,19.96031 -10.038948,30.324768 -2.524275,8.634059 0.3516,24.56676559 -7.785598,27.7332468 C 6.5808517,1.8772569 -12.394418,0.0218051 -31.364679,0.5161385 c -17.990282,-1.9676646 -36.150518,-1.24229362 -54.137347,-3.2591353 0.515947,-14.8566282 5.406472,-29.1459632 5.766658,-44.0271972 1.919969,-4.340467 13.249644,-18.475635 4.153312,-18.40317 -6.77894,6.101398 -18.69357,7.820132 -23.160506,15.10823 4.561691,9.960814 0.02443,20.720079 -0.293812,31.06479 -3.716266,28.611616 -7.586166,57.535089 -17.149176,84.85951 -5.24254,21.780535 -5.41783,45.980844 -19.90285,64.298704 -0.4781,1.37089 -1.96263,3.62855 1.07816,2.54595 z"
       style="fill:#b30000;fill-opacity:1;stroke-width:0.992523"
       id="path171" />
  </g>
</svg>
