<svg
    xmlns="http://www.w3.org/2000/svg"
    xmlns:xlink="http://www.w3.org/1999/xlink"
    width="1235" height="650"
    viewBox="0 0 7410 3900">
  <defs>
    <clipPath id="heart">
      <path
        transform="
          translate(2964,3900)
          rotate(225)
        "
        d="M 0,2499 V 0 h 2499 a 1249,1249 90 0 1 0,2499 1249,1249 90 0 1 -2499,0 z"
        style="fill:none" stroke="red" stroke-width="5" />
    </clipPath>
  </defs>
  <g clip-path="url(#heart)" >
    <!-- create a basic red rectangle -->
    <rect width="7410" height="3900" fill="#b22234"/>
    <!-- draw wide lines to create the white stripes -->
    <path d="
      M0,450
      H7410
      m0,600
      H0
      m0,600
      H7410
      m0,600
      H0m0,600
      H7410
      m0,600
      H0"
      stroke="#fff"
      stroke-width="300"/>
    <!-- add the blue star background -->
    <rect width="2964" height="2100" fill="#3c3b6e"/>
    <!-- this code creates the star field in a clever nested set of groups -->
    <g fill="#fff">
      <g id="s18">
        <g id="s9">
          <g id="s5">
            <g id="s4">
              <!-- here is the path for a single star -->
              <path id="s"
                d="
                  M247,90
                  317.534230,307.082039
                  132.873218,172.917961
                  H361.126782
                  L176.465770,307.082039
                  z"/>
              <use xlink:href="#s" y="420"/>
              <use xlink:href="#s" y="840"/>
              <use xlink:href="#s" y="1260"/>
            </g>
            <use xlink:href="#s" y="1680"/>
          </g>
          <use xlink:href="#s4" x="247" y="210"/>
        </g>
        <use xlink:href="#s9" x="494"/>
      </g>
      <use xlink:href="#s18" x="988"/>
      <use xlink:href="#s9" x="1976"/>
      <use xlink:href="#s5" x="2470"/>
    </g>
  </g>
</svg>
