<svg xmlns="http://www.w3.org/2000/svg" width="233.30176" height="200">  
  <g transform="translate(136.94,65.69)">
    <path d="
m -135.01,132.70 c 10.55,3.28 21.07,-3.95 24.21,-14.06 4.83,-12.32 4.18,-25.83 7.88,-38.45 4.57,-21.17 9.17,-42.34 14.71,-63.28 19.24,-5.95 39.28,2.22 58.89,0.25 18.34,0.45 36.97,-1.65 55.09,2.27 0.79,20.08 -5.02,39.72 -8.91,59.26 -2.76,11.18 -4.78,22.67 -8.14,33.63 -2.33,8.00 -9.35,14.56 -12.78,20.60 9.50,3.41 20.14,1.19 29.96,-0.01 4.27,-10.41 2.24,-25.11 4.40,-37.10 0.33,-13.55 7.01,-25.69 8.52,-38.90 1.49,-15.29 4.24,-30.44 8.01,-45.29 1.08,-13.96 4.10,-27.68 6.00,-41.51 2.50,-10.59 7.27,-20.62 14.02,-29.15 0.01,-11.15 -18.52,-1.56 -23.46,3.33 -7.88,7.84 -3.36,8.80 -7.32,22.43 C 33.54,-24.62 33.69,-0.80 25.56,2.37 6.58,1.88 -12.39,0.02 -31.36,0.52 c -17.99,-1.97 -36.15,-1.24 -54.14,-3.26 0.52,-14.86 5.41,-29.15 5.77,-44.03 1.92,-4.34 13.25,-18.48 4.15,-18.40 -6.78,6.10 -18.69,7.82 -23.16,15.11 4.56,9.96 0.02,20.72 -0.29,31.06 -3.72,28.61 -7.59,57.54 -17.15,84.86 -5.24,21.78 -5.42,45.98 -19.90,64.30 -0.48,1.37 -1.96,3.63 1.08,2.55 z 
    "
      style="fill:#b30000"
    />
  </g>
</svg>