<svg xmlns="http://www.w3.org/2000/svg" width="225" height="200">  
  <g transform="translate(0.00,0.00)">
    <path d="
m 12.00,200.00 c 15.22,-1.96 18.85,-24.62 31.04,-33.24 17.72,-19.03 25.81,-35.79 41.73,-29.03 23.99,2.39 63.47,-2.64 87.53,0.18 17.48,0.35 15.27,-2.50 18.67,12.18 4.55,14.76 3.37,41.15 14.46,49.91 27.69,6.11 19.32,-18.74 10.62,-32.97 -12.19,-15.46 -7.82,-34.35 -17.79,-52.58 -6.65,-21.99 -13.07,-41.65 -17.81,-63.26 -3.26,-13.89 -4.24,-33.35 -11.89,-50.24 -20.09,5.07 -21.86,21.14 -35.01,32.89 -11.16,20.22 -31.38,41.06 -44.95,60.05 -10.53,20.95 -31.00,35.76 -44.60,55.25 -12.72,18.27 -28.51,33.50 -44.47,49.15 -1.45,3.48 9.48,1.09 12.47,1.71 z m 84.61,-73.38 c -24.45,5.77 -14.89,-10.96 -3.91,-21.01 13.22,-19.74 35.95,-47.59 51.08,-66.31 10.57,-18.41 17.03,-10.93 18.16,8.02 9.38,17.91 13.75,39.66 18.17,63.62 11.16,21.48 -19.04,13.43 -34.84,15.17 -16.10,2.76 -32.39,-0.04 -48.66,0.50 z 
    "
      style="fill:#b30000"
    />
  </g>
</svg>