<?xml version="1.0" encoding="UTF-8" standalone="no"?>
<svg
   xmlns:dc="http://purl.org/dc/elements/1.1/"
   xmlns:cc="http://creativecommons.org/ns#"
   xmlns:rdf="http://www.w3.org/1999/02/22-rdf-syntax-ns#"
   xmlns:svg="http://www.w3.org/2000/svg"
   xmlns="http://www.w3.org/2000/svg"
   xmlns:sodipodi="http://sodipodi.sourceforge.net/DTD/sodipodi-0.dtd"
   xmlns:inkscape="http://www.inkscape.org/namespaces/inkscape"
   inkscape:version="1.0 (4035a4f, 2020-05-01)"
   sodipodi:docname="haffa-pilot.svg"
   id="svg29"
   version="1.1"
   height="300"
   width="300">
  <metadata
     id="metadata35">
    <rdf:RDF>
      <cc:Work
         rdf:about="">
        <dc:format>image/svg+xml</dc:format>
        <dc:type
           rdf:resource="http://purl.org/dc/dcmitype/StillImage" />
        <dc:title></dc:title>
      </cc:Work>
    </rdf:RDF>
  </metadata>
  <defs
     id="defs33" />
  <sodipodi:namedview
     inkscape:current-layer="svg29"
     inkscape:window-maximized="0"
     inkscape:window-y="23"
     inkscape:window-x="0"
     inkscape:cy="163.77808"
     inkscape:cx="91.083808"
     inkscape:zoom="2.45"
     showgrid="false"
     id="namedview31"
     inkscape:window-height="926"
     inkscape:window-width="1079"
     inkscape:pageshadow="2"
     inkscape:pageopacity="0"
     guidetolerance="10"
     gridtolerance="10"
     objecttolerance="10"
     borderopacity="1"
     bordercolor="#666666"
     pagecolor="#ffffff" />
  <path
     id="path27"
     style="fill:#000000"
     d="  m  61.078806,246.98201  1.107051,-29.7141  c  -13.71,6.3 -21.03,10.85 -19.33,22.06  0.81,8.76 -7.00,7.70 -8.32,0.47  -5.69,-8.79 -7.70,-15.34 3.75,-18.16  9.70,-4.86 18.19,-11.39 26.70,-18.02  6.37,-5.31 11.99,-10.47 15.83,-19.39  3.09,-16.40 4.48,-33.11 2.87,-49.74  l  -2.16,-18.45  c  -2.63,-8.55 -18.61,-4.62 -28.43,-5.06  -9.64,1.71 -19.30,3.72 -28.46,7.29  -8.34,-3.39 -22.02,15.15 -22.54,-0.65  1.93,-7.78 13.85,-5.58 20.37,-7.92  7.18,-0.87 14.09,-3.06 21.00,-4.78  9.39,-1.25 18.71,-3.08 28.14,-3.83  6.52,-1.75 6.92,-11.71 6.74,-18.96  C  77.57,77.22 78.05,71.88 74.15,68.10  67.13,64.95 57.85,52.82 66.61,45.95  c  7.81,-5.13 12.98,-2.03 20.80,1.13  -6.03,12.40 9.90,26.11 19.70,14.24  5.32,-9.38 9.02,-19.59 14.66,-28.81  4.44,-7.32 10.90,-18.46 19.36,-19.78  4.30,12.42 -13.78,16.35 -15.02,27.98  -4.5,11.46 -8.79,23.00 -16.12,33.06  -4.91,10.15 -2.02,21.92 -3.54,32.97  -0.17,20.91 1.25,42.61 -1.42,63.36  -2.64,12.37 -10.05,23.13 -19.93,30.88  -10.40,7.79 -13.412148,16.65364 -13.81,31.28  0.53,10.38 -1.62,20.31 -0.50,30.94  -0.49,7.82 11.57,3.90 11.63,9.39  2.12,6.00 -13.45,5.83 -22.44,2.43  z  M  1.13,1.37  c  0.51,-4.04  2.81,3.92  0,0  z" />
</svg>
