<svg
 xmlns="http://www.w3.org/2000/svg"
 width="922" height="1020"
>
    <path d="M 10,10 h 902 v 1000 h -902 v -1000 Z" style="fill:none;stroke:black;stroke-width=3" />
    <path d="M 154.324885734,990.445008516 C 180.515504149,884.124167928 216.106594047,666.958195663 244.106928897,566.9713626 C 267.985131866,469.950453695 284.272579786,342.616794494 305.938907112,294.00580024 C 443.577896014,304.361399843 526.322153039,288.42584123 598.560000758,309.086770536 C 669.44056115,315.119158654 688.090694416,311.047296674 748.414575601,311.751075288 C 789.1331954,284.806408359 774.102495005,265.653576083 798.181777578,242.378611926 C 724.385562929,248.71261945 773.599795995,245.093186579 706.489478177,243.886708955 C 499.88018512,243.434279847 385.968589483,227.599261036 313.982091269,222.823620442 C 315.339378596,177.982868761 323.734452061,150.686312525 347.813734634,83.0230257964 C 438.349826312,70.5560903516 740.773550651,99.5618232212 856.444592822,92.1721477761 C 890.829205097,47.8843650064 870.821784504,64.7247818371 912.394992621,17.6218846121 C 756.658839363,16.6164865924 679.444271446,37.3779557001 557.740841156,28.5807230273 C 501.689901556,34.3114917399 359.627161366,2.69172401892 261.299235035,11.5894964937 C 270.599166718,81.3641190639 234.354568106,222.773350541 210.023936028,302.70249311 C 205.449375038,409.224413302 128.687236231,718.73619368 100.435551876,836.36776199 C 54.8910215816,931.025985549 53.6845439579,976.671055646 10,1010 C 101.089060589,1004.01788178 96.212880193,996.024967526 154.324885734,990.445008516 Z" />
</svg>
    