<svg xmlns="http://www.w3.org/2000/svg" width="1125" height="1000">
  <g transform="translate(0.00,0.00)">
    <path d="
M 60.0003275878,1000.0054598 C 136.100743078,990.205406291 154.250842174,876.904787696 215.201174948,833.804552379 C 303.801658686,738.654032879 344.251879535,654.853575348 423.852314135,688.653759889 C 543.802969038,700.603825134 741.204046802,675.45368782 861.504703615,689.553764803 C 948.905180802,691.303774358 937.855120471,677.053696556 954.855213287,750.454097305 C 977.605337498,824.254500238 971.705305285,956.205220658 1027.15560803,1000.0054598 C 1165.60636394,1030.55562659 1123.75613545,906.304948214 1080.25589795,835.15455975 C 1019.30556517,757.854137707 1041.15568447,663.40362203 991.305412297,572.253124369 C 958.055230759,462.302524064 925.955055499,364.001987366 902.254926102,255.951397435 C 885.954837107,186.501018252 881.054810354,89.2004870139 842.804601517,4.75002593404 C 742.354053081,30.1001643399 733.504004761,110.450603035 667.75364578,169.200923798 C 611.953341123,270.301475783 510.852789137,374.502044694 443.00241869,469.452563102 C 390.352131232,574.203135016 288.001572422,648.253539314 220.001201155,745.704071371 C 156.400853912,837.054570123 77.4504228613,913.204985887 -2.35001283052,991.455413116 C -9.60005241405,1008.85550812 45.0502459639,996.905442872 60.0003275878,1000.0054598 Z M 483.052637355,633.103456598 C 360.801969895,661.953614113 408.602230873,578.303157401 463.502530616,528.052883046 C 529.602891509,429.352344164 643.253512015,290.101583887 718.903925048,196.50107285 C 771.754213599,104.450570276 804.05438995,141.850774472 809.704420798,236.601291788 C 856.604676862,326.151780713 878.454796159,434.902374466 900.55491682,554.70302855 C 956.355221477,662.103614932 805.354397048,621.853395175 726.353965724,630.553442675 C 645.85352621,644.35351802 564.40308151,630.353441583 483.052637355,633.053456325 Z"
      style="fill:#b30000"
    />
  </g>
</svg>
