<svg
 xmlns="http://www.w3.org/2000/svg"
 width="1145" height="1020"
>
    <path d="M 10,10 h 1125 v 1000 h -1125 v -1000 Z" style="fill:none;stroke:black;stroke-width=3" />
    <path d="M 73.0092439084,1005.25543386 C 149.109659399,995.455380357 167.259758494,882.154761762 228.210091269,839.054526445 C 316.810575007,743.904006945 357.260795856,660.103549414 436.861230456,693.903733955 C 556.811885358,705.8537992 754.212963122,680.703661886 874.513619936,694.803738869 C 961.914097122,696.553748424 950.864036791,682.303670622 967.864129608,755.704071371 C 990.614253818,829.504474304 984.714221606,961.455194724 1040.16452435,1005.25543386 C 1178.61528026,1035.80560066 1136.76505177,911.55492228 1093.26481427,840.404533816 C 1032.31448149,763.104111773 1054.16460079,668.653596096 1004.31432862,577.503098435 C 971.064147079,467.55249813 938.96397182,369.251961432 915.263842423,261.201371501 C 898.963753428,191.750992318 894.063726675,94.4504610799 855.813517838,10 C 755.362969401,35.3501384059 746.512921082,115.700577101 680.7625621,174.450897864 C 624.962257443,275.551449849 523.861705458,379.75201876 456.011335011,474.702537168 C 403.361047552,579.453109082 301.010488742,653.50351338 233.010117476,750.954045437 C 169.409770233,842.304544189 90.4593391818,918.454959953 10.65890349,996.705387182 C 3.40886390646,1014.10548218 58.0591622844,1002.15541694 73.0092439084,1005.25543386 Z M 496.061553676,638.353430664 C 373.810886215,667.203588179 421.611147194,583.553131467 476.511446937,533.302857112 C 542.611807829,434.60231823 656.262428335,295.351557953 731.912841369,201.751046916 C 784.763129919,109.700544342 817.063306271,147.100748538 822.713337118,241.851265854 C 869.613593183,331.401754779 891.463712479,440.152348532 913.563833141,559.953002616 C 969.364137798,667.353588998 818.363313368,627.103369241 739.362882044,635.803416741 C 658.862442531,649.603492086 577.41199783,635.603415649 496.061553676,638.303430391 Z" />
</svg>
    