<svg
 xmlns="http://www.w3.org/2000/svg"
 width="547" height="1020"
>
    <path d="M 10,10 h 527 v 1000 h -527 v -1000 Z" style="fill:none;stroke:black;stroke-width=3" />
    <path d="M 232.859036571,895.125963323 L 237.053230037,782.865163449 C 185.249272909,806.67004528 157.590267353,823.862459936 164.013806894,866.220035385 C 167.074434558,899.320156788 137.563938193,895.314890956 132.576248667,867.99595514 C 111.076283965,834.782477157 103.481393095,810.032957158 146.745821185,799.377438624 C 183.3977821,781.01367264 215.477694282,756.339723695 247.633177517,731.287919482 C 271.702558035,711.223804796 292.938024049,691.72647301 307.447666308,658.02178318 C 319.123394064,596.053519365 324.375582277,532.913904223 318.292112476,470.076573294 L 310.130438705,400.362276503 C 300.192845179,368.055651161 239.811573487,382.90536316 202.706186252,381.242799985 C 166.280938497,387.704125053 129.78011969,395.299015923 95.1685772179,408.788448961 C 63.6554479367,395.979155404 11.9648473892,466.033521936 10,406.332389724 C 17.2926066562,376.935249939 62.3329545017,385.248065817 86.9691179205,376.406252565 C 114.099126103,373.118911741 140.208925063,364.84388139 166.318724024,358.344770795 C 201.79933361,353.621579955 237.01544451,346.706828566 272.647196203,343.872914063 C 297.283359622,337.260446887 298.79478069,299.626062278 298.11464121,272.231555409 C 295.167370126,253.678861792 296.981075408,233.501390525 282.244719989,219.218461427 C 255.719280234,207.316020511 220.654311442,161.482176604 253.754432845,135.523519751 C 283.26492921,116.139544545 302.800046522,127.853057827 332.348328414,139.793284269 C 309.563655805,186.647337397 369.755999863,238.451294525 406.785816045,193.599874313 C 426.887716258,158.157050253 440.868361143,119.578027476 462.17939821,84.7397718443 C 478.956172072,57.0807662881 503.365622331,14.9876895265 535.332177933,10 C 551.579954421,56.9296241813 483.263722118,71.7793361807 478.578316805,115.723903751 C 461.574829783,159.026117368 445.364838822,202.630615198 417.668047739,240.642855075 C 399.115354121,278.995164691 410.035371342,323.468729636 404.291971282,365.221736657 C 403.649617327,444.23127302 409.015162121,526.225865994 398.926426488,604.63083393 C 388.951047435,651.371530478 360.951972138,692.028757224 323.619871743,721.312540429 C 284.322923958,750.747465741 272.949480417,784.225442411 271.438059348,839.505667997 C 273.440692264,878.727044728 265.31680402,916.248072757 269.548783012,956.414087656 C 267.697292203,985.962369548 313.266637423,971.150443075 313.493350583,991.894697242 C 321.503882247,1014.56601327 262.67181715,1013.92365932 228.702628632,1001.07658023 Z" />
</svg>
    