<svg xmlns="http://www.w3.org/2000/svg"
    xmlns:xlink="http://www.w3.org/1999/xlink" viewBox="0 0 500 500">
    <title>Red Hot Chilli Peppers Logo</title>
<defs>
    <path d="M250,250
        m-175,0
        a 175,175
        0 1,1
        350,0
        a 175,175
        0 1,1
        -350,0"
        stroke="#00f" stroke-width="4px" fill="none"
        id="textcircle" />
    <path d="M250,250
        m-175,0
        a 175,175
        0 1,0
        350,0
        a 175,175
        0 1,0
        -350,0"
        stroke="#00f" stroke-width="4px" fill="none"
        id="textcircle1" />

    <style>
        text {
            font-size: 32px;
            font-family: Times New Roman, serif;
            font-weight: 900;
            text-transform: uppercase;
            letter-spacing: 4px;
        }
    </style>
</defs>
    <text dy="0" textLength="1200">
        <textPath xlink:href="#textcircle" startOffset="8%">
        Heart of America
        </textPath>
    </text>

    <text dy="22" textLength="1200">
        <textPath xlink:href="#textcircle1" startOffset="1%">
        Free Flight Association
        </textPath>
    </text>
    <path d="M250,250
        m-175,0
        a 175,175
        0 1,0
        350,0
        a 175,175
        0 1,0
        -350,0"
        stroke="#00f" stroke-width="4px" fill="none"
        id="textcircle" />
    <path d="M250,250
        m-220,0
        a 220,220
        0 1,0
        440,0
        a 220,220
        0 1,0
        -440,0"
        stroke="#00f" stroke-width="4px" fill="none"
        id="textcircle" />

</svg>
