<svg width="1408" height="1408"
  viewBox="-500 -500 2808 2808"
  xmlns="http://www.w3.org/2000/svg"
>
  <rect x="0" y="703" width="205" height="208" stroke="black" stroke-width="2" fill="none" />
  <path style="fill:none" stroke="red" stroke-width="3" d="M 1.86584600998,908.882158641 C 12.4824381116,912.294966679 23.0688408519,904.772222131 26.2286606812,894.252865648 C 31.0891478708,881.4340257 30.4350450399,867.377002348 34.1583996159,854.246015323 C 38.7572456732,832.218836613 43.3862810919,810.191657904 48.9612498353,788.403791953 C 68.3226936302,782.212874932 88.4891870631,790.71368032 108.222966316,788.663914517 C 126.678729268,789.132135132 145.426322714,786.947105595 163.660697015,791.025827397 C 164.455683533,811.918871728 158.609010536,832.354100346 154.694456671,852.685279939 C 151.91703542,864.317960996 149.884285084,876.273194032 146.503076604,887.676967233 C 144.158369534,896.000889277 137.09405896,902.826505354 133.642408637,909.111066497 C 143.202373088,912.659138268 153.909533274,910.349249901 163.791517581,909.100661594 C 168.088470024,898.269158034 166.045656568,882.973951278 168.219290591,870.498473114 C 168.551373566,856.399830152 175.273538044,843.76827845 176.793069236,830.023402174 C 178.292474187,814.114306167 181.059832317,798.350878796 184.853628737,782.899598501 C 185.940445748,768.374354534 188.979508132,754.098828228 190.891501022,739.708847994 C 193.407281141,728.690056188 198.207389608,718.253938925 204.999995929,709.378557045 C 205.010059049,697.777090696 186.363096808,707.755392246 181.391915293,712.843389596 C 173.462176358,721.000833199 178.010706813,721.999703845 174.025711105,736.181586028 C 171.479741625,745.19223164 171.630688432,769.976709527 163.449371485,773.275063637 C 144.349568823,772.765223412 125.259829281,770.829911537 106.170089739,771.350156665 C 88.0665360032,769.300390861 69.7919092196,770.059948748 51.6883554842,767.958158431 C 52.2116377489,752.496473234 57.1325036615,737.627867483 57.4947759986,722.14537248 C 59.4268951299,717.629644771 70.8284106286,702.917112558 61.6709709959,703.000351779 C 54.8481753135,709.347342337 42.8629988272,711.136985577 38.3647839746,718.72215954 C 42.9535669115,729.085442485 38.3849102156,740.281117634 38.0729534808,751.039786877 C 34.329472664,780.808213087 30.4350450399,810.90959618 20.8147018654,839.335789961 C 15.5416267362,861.997667727 15.3604905676,887.17753191 0.789092119102,906.239313392 C 0.306062336278,907.664785042 -1.1832794941,910.016293019 1.87590913046,908.892563543 Z" />
  <rect x="205" y="703" width="226" height="208" stroke="black" stroke-width="2" fill="none" />
  <path style="fill:none" stroke="red" stroke-width="3" d="M 217.657719969,910.013130244 C 232.94528238,907.974719114 236.591396149,884.408190447 248.835508225,875.443341501 C 266.634168274,855.652033445 274.760080226,838.221538278 290.750749976,845.251976663 C 314.847242897,847.737590234 354.502496775,842.506361672 378.66930043,845.439177685 C 396.226895105,845.803179672 394.007084794,842.839163489 397.42217758,858.106446845 C 401.992375279,873.456930655 400.807137194,900.902680503 411.946366311,910.013130244 C 439.759283734,916.367564937 431.352128846,890.523423834 422.613509071,875.724143034 C 410.369396995,859.645655249 414.758795664,839.999947988 404.744538289,821.040644474 C 398.065018575,798.170919611 391.616519844,777.724407978 386.855478725,755.249885272 C 383.581007407,740.804206402 382.596657133,720.565695905 374.912698365,703 C 354.733517757,708.272828788 352.955660631,724.985720037 339.747287062,737.205786756 C 328.537747212,758.234701569 308.227989527,779.908419902 294.597751555,799.658127731 C 284.02100831,821.446246689 263.460140861,836.848730783 249.799769718,857.118441451 C 237.023304942,876.119345191 221.163212269,891.95863167 205.132364957,908.234720534 C 203.675928328,911.853940294 214.654447195,909.368326723 217.657719969,910.013130244 Z M 302.643308383,833.697513578 C 278.084773497,839.698346341 287.687210859,822.299051345 298.715951679,811.846994279 C 311.994635982,791.317282192 334.825535694,762.353124054 350.022698591,742.884217759 C 360.639619399,723.737713223 367.128295692,731.516955696 368.263311824,751.225063298 C 377.684950156,769.851564994 382.074348825,792.471688495 386.513969447,817.390224544 C 397.723509297,839.729546512 367.389449846,831.357500802 351.519312782,833.167110682 C 335.347844003,836.037526354 318.985531802,833.125510455 302.643308383,833.687113521 Z" />
  <rect x="474" y="703" width="177" height="208" stroke="black" stroke-width="2" fill="none" />
  <path style="fill:none" stroke="red" stroke-width="3" d="M 502.308562197,906.932561771 C 507.445713331,884.817826929 514.426717175,839.647304698 519.918834605,818.850043421 C 524.602417693,798.669694369 527.797114367,772.184293255 532.046849758,762.07320645 C 559.04400869,764.227171167 575.27385661,760.912574976 589.442927971,765.210048271 C 603.345774609,766.464785 607.003899504,765.617837708 618.836109409,765.76422366 C 626.822851095,760.159732939 623.874658793,756.175943825 628.59768258,751.334751281 C 614.122945797,752.652224846 623.776057044,751.899382808 610.612723525,751.648435463 C 570.087404601,751.554330208 547.744248231,748.260646295 533.624477745,747.267313052 C 533.890702468,737.940436702 535.53735168,732.262753005 540.260375467,718.188789366 C 558.018550499,715.595666793 617.337362821,721.62885923 640.025625313,720.091806737 C 646.769984959,710.879947921 642.845635341,714.382754622 651,704.585351999 C 620.453178096,704.376229211 605.307949418,708.694614786 581.436465935,706.86479039 C 570.442370899,708.056790282 542.577516573,701.479878596 523.291014428,703.330615271 C 525.115146788,717.843736765 518.005960671,747.256856912 513.233636009,763.882118567 C 512.336360091,786.038677967 497.279872988,850.417128285 491.738454682,874.884494494 C 482.805136204,894.573404994 482.568492006,904.067579574 474,911 C 491.866636956,909.755719411 490.910199989,908.093193245 502.308562197,906.932561771 Z" />
  <rect x="686" y="703" width="179" height="208" stroke="black" stroke-width="2" fill="none" />
  <path style="fill:none" stroke="red" stroke-width="3" d="M 714.628432956,906.932561771 C 719.823630995,884.817826929 726.883516239,839.647304698 732.437691494,818.850043421 C 737.174196424,798.669694369 740.404991365,772.184293255 744.702746365,762.07320645 C 772.004957941,764.227171167 788.418193972,760.912574976 802.747367835,765.210048271 C 816.807308785,766.464785 820.506768425,765.617837708 832.472675617,765.76422366 C 840.549662971,760.159732939 837.568157763,756.175943825 842.34454905,751.334751281 C 827.706255919,752.652224846 837.46844187,751.899382808 824.156370119,751.648435463 C 783.173137987,751.554330208 760.577516573,748.260646295 746.298200657,747.267313052 C 746.567433569,737.940436702 748.232688987,732.262753005 753.009080274,718.188789366 C 770.967912651,715.595666793 830.956994039,721.62885923 853.90162108,720.091806737 C 860.722188179,710.879947921 856.753495627,714.382754622 865,704.585351999 C 834.108016267,704.376229211 818.791655061,708.694614786 794.650437302,706.86479039 C 783.532115202,708.056790282 755.352403766,701.479878596 735.847975043,703.330615271 C 737.692719069,717.843736765 730.503203164,747.256856912 725.67695393,763.882118567 C 724.769539301,786.038677967 709.5429224,850.417128285 703.938889198,874.884494494 C 694.904629269,894.573404994 694.665311125,904.067579574 686,911 C 704.06851986,909.755719411 703.101275695,908.093193245 714.628432956,906.932561771 Z" />
  <rect x="851" y="703" width="224" height="208" stroke="black" stroke-width="2" fill="none" />
  <path style="fill:none" stroke="red" stroke-width="3" d="M 863.545704748,910.013130244 C 878.697978997,907.974719114 882.311826271,884.408190447 894.447583374,875.443341501 C 912.088733156,855.652033445 920.142734383,838.221538278 935.991893781,845.251976663 C 959.875143402,847.737590234 999.17946583,842.506361672 1023.13240397,845.439177685 C 1040.5346217,845.803179672 1038.33445573,842.839163489 1041.71932645,858.106446845 C 1046.24907992,873.456930655 1045.07433067,900.902680503 1056.11498254,910.013130244 C 1083.68176795,916.367564937 1075.34901266,890.523423834 1066.6877258,875.724143034 C 1054.5519687,859.645655249 1058.90252314,839.999947988 1048.97688751,821.040644474 C 1042.35647859,798.170919611 1035.96504622,777.724407978 1031.24613821,755.249885272 C 1028.00064451,740.804206402 1027.0250053,720.565695905 1019.40904617,703 C 999.408442379,708.272828788 997.646318501,724.985720037 984.554833194,737.205786756 C 973.444492812,758.234701569 953.314467496,779.908419902 939.804851099,799.658127731 C 929.321707351,821.446246689 908.942794482,836.848730783 895.403311578,857.118441451 C 882.739912863,876.119345191 867.020174993,891.95863167 851.131193586,908.234720534 C 849.687645776,911.853940294 860.569009609,909.368326723 863.545704748,910.013130244 Z M 947.779208309,833.697513578 C 923.43800559,839.698346341 932.95546563,822.299051345 943.886606974,811.846994279 C 957.047780796,791.317282192 979.676637148,762.353124054 994.739311878,742.884217759 C 1005.26227763,723.737713223 1011.69353201,731.516955696 1012.81850375,751.225063298 C 1022.15676476,769.851564994 1026.50731919,792.471688495 1030.90765113,817.390224544 C 1042.01799152,839.729546512 1011.95237507,831.357500802 996.222681696,833.167110682 C 980.194323259,836.037526354 963.976810282,833.125510455 947.779208309,833.687113521 Z" />
  <rect x="582" y="572" width="178" height="261" stroke="black" stroke-width="2" fill="none" />
  <path style="fill:none" stroke="red" stroke-width="3" d="M 657.155419144,803.017876427 L 658.569839545,773.71780766 C 641.099836214,779.930881818 631.772307083,784.418102043 633.938536526,795.473429235 C 634.970681143,804.112560922 625.018768232,803.06718654 623.336754782,795.936944292 C 616.086257411,787.268226538 613.525009658,780.808601818 628.115202083,778.027511481 C 640.475452434,773.234568559 651.293857122,766.794667884 662.137746863,760.256146985 C 670.254736011,755.019413052 677.416035699,749.930609456 682.309165735,741.13368541 C 686.246606311,724.959968554 688.017817443,708.480529002 685.966270736,692.07998563 L 683.21388509,673.884554167 C 679.862600717,665.452524953 659.500043953,669.328299785 646.986883289,668.894370796 C 634.703088094,670.580776639 622.393807848,672.563043156 610.721653908,676.083785179 C 600.094387112,672.74055956 582.662611359,691.024749225 582,675.442753718 C 584.459307544,667.770100234 599.648398697,669.939745178 607.956525737,667.63203192 C 617.105659502,666.774035964 625.910745061,664.614253043 634.715830621,662.917985177 C 646.681062661,661.685232368 658.557097019,659.880482256 670.573299164,659.14083057 C 678.881426204,657.414976638 679.39112725,647.592402255 679.161761779,640.442435962 C 678.167844741,635.600182928 678.779485995,630.333862927 673.809900803,626.606018432 C 664.864647456,623.499481353 653.039583203,611.536848094 664.202036097,604.761638655 C 674.153949008,599.702421126 680.74183502,602.759648093 690.706490458,605.876047194 C 683.022747198,618.104955061 703.321591331,631.625787871 715.809266944,619.919567196 C 722.588290848,610.668990116 727.303025518,600.599865171 734.489810258,591.507080451 C 740.147491862,584.288080001 748.379163745,573.301786966 759.159340855,572 C 764.638627093,584.248631911 741.600139841,588.124406743 740.0200666,599.593938879 C 734.28592984,610.895816633 728.819386128,622.276590567 719.479114471,632.197785174 C 713.222534138,642.207737984 716.905124191,653.815338435 714.968260219,664.712873268 C 714.751637275,685.334362258 716.561075986,706.734951024 713.158821508,727.198647656 C 709.794794608,739.397969455 700.352582742,750.009505635 687.762966921,757.652573052 C 674.51073974,765.335088558 670.675239374,774.072840469 670.165538328,788.500979347 C 670.840892213,798.737758674 668.101249094,808.53074699 669.528412021,819.014076878 C 668.904028241,826.726178452 684.27151476,822.860265643 684.347969916,828.27451598 C 687.049385457,834.191729464 667.209272265,834.024075082 655.753741269,830.670987441 Z" />
  <rect x="709" y="377" width="282" height="217" stroke="black" stroke-width="2" fill="none" />
  <path style="fill:none" stroke="red" stroke-width="3" d="M 791.962565956,593.821160859 C 793.787278594,586.067940511 794.719686701,583.156880083 796.253648424,575.028968789 C 782.979365276,567.861803511 746.986407192,555.621899269 752.480596894,540.038598891 C 768.602233829,545.956794349 781.295015148,555.814048472 799.261416509,560.425629348 C 809.628190509,525.867595157 828.1760937,473.823983478 836.888595252,443.464409377 C 797.87784319,427.708174717 768.251327553,418.235219001 736.188519767,404.87124192 C 723.58597149,396.743330626 705.719829065,385.723573824 709.519642746,377 C 720.668436448,381.169637709 731.095365809,385.886900647 742.32436666,393.447971792 C 777.795978276,401.450986104 810.771142381,417.533874409 843.004390359,425.508066341 C 846.984670124,421.155886889 858.003127209,399.817717877 857.301314656,414.478702079 L 856.409010124,429.485554846 C 886.817545463,440.687853391 923.702808079,458.692233729 950.883005674,467.521489614 C 964.06705578,468.001862622 977.261131779,468.155581985 990.475259566,468.097937224 C 995.869190332,483.902209185 958.131726759,479.232983548 948.15596261,480.626065271 C 909.836997207,467.146798668 885.955318612,458.586551667 849.160289039,447.720514227 C 832.146347572,487.312857541 820.325818998,527.520078305 807.091639424,562.98121375 C 821.157968168,569.01469873 832.737875295,574.788782285 848.107570209,580.092100292 C 849.922256954,593.033349126 813.107175594,578.871952852 801.356828275,575.960892424 C 799.421830807,580.870304565 796.815098467,586.817322403 795.501706403,593.705871337 C 793.125569616,594.291926407 791.97259185,593.821160859 791.97259185,593.821160859 Z" />
  <rect x="209" y="5" width="611" height="669" stroke="black" stroke-width="2" fill="none" />
  <path style="fill:none" stroke="red" stroke-width="3" d="M 514.5,674 L 261.415511752,370.888248421 A 178.958,214.332 0 0,1 514.5,67.7764968413 A 178.958,214.332 0 0,1 767.584488248,370.888248421 Z" />
  <circle cx="542" cy="548" r="704" stroke="black" stroke-width="2" fill="none" />
</svg>
