<svg width="1125" height="1000"
                xmlns="http://www.w3.org/2000/svg" > <path style="fill:none" stroke="black" stroke-width="3" d="M 20,20 h 675.0073074124044 v 600.0 H 20 V 20 Z" />
   <path style="fill:none" stroke="red" stroke-width="3" d="M 57.805546345,617.153260318 C 103.465795639,611.273228214 114.355855097,543.292857057 150.926054761,517.432715867 C 204.086345004,460.342404167 228.356477513,410.062129649 276.116738273,430.342240373 C 348.087131215,437.51227952 466.527777873,422.422197132 538.708171962,430.882243322 C 591.148458273,431.932249054 584.518422075,423.382202373 594.718477765,467.422442823 C 608.368552291,511.702684582 604.828532963,590.873116835 638.098714611,617.153260318 C 721.169168156,635.483360396 696.059031061,560.932953368 669.95888856,518.242720289 C 633.388688895,471.862467064 646.498760473,415.192157657 616.588597171,360.501859061 C 596.638488248,294.531498878 577.378383092,235.551176859 563.158305454,170.720822901 C 553.378252057,129.050595391 550.438236005,70.6702766479 527.488110703,20 C 467.217781641,35.2100830435 461.907752649,83.4203462603 422.45753726,118.670538718 C 388.977354466,179.33086991 328.317023275,241.851211256 287.606801006,298.821522301 C 256.016628531,361.671865449 194.606293245,406.102108028 153.806070486,464.572427262 C 115.64586214,519.382726514 68.2756035091,565.072975972 20.395342094,612.023232309 C 16.0453183439,622.463289309 48.8354973706,615.293250163 57.805546345,617.153260318 Z M 311.636932205,397.012058398 C 238.286531729,414.322152907 266.966688316,364.13187888 299.906868162,333.981714267 C 339.567084698,274.761390938 407.757457001,191.210934772 453.147704821,135.05062815 C 484.857877951,79.8203266051 504.237983762,102.260449123 507.628002271,159.110759512 C 535.76815591,212.841052867 548.878227488,278.091409119 562.138299885,349.971801569 C 595.618482679,414.412153399 505.017988021,390.262021545 457.617729227,395.482050045 C 409.317465518,403.762095252 360.447198698,395.36204939 311.636932205,396.982058234 Z" />"
</svg>