<svg width="527" height="1000"
                xmlns="http://www.w3.org/2000/svg" > <path style="fill:none" stroke="black" stroke-width="3" d="M 20,20 h 316.69499520840264 v 600.0 H 20 V 20 Z" />
   <path style="fill:none" stroke="red" stroke-width="3" d="M 153.715421943,551.075577994 L 156.231938022,483.71909807 C 125.149563745,498.002027168 108.554160412,508.317475962 112.408284137,533.732021231 C 114.244660735,553.592094073 96.538362916,551.188934574 93.5457492,534.797573084 C 80.6457703792,514.869486294 76.0888358572,500.019774295 102.047492711,493.626463175 C 124.03866926,482.608203584 143.286616569,467.803834217 162.57990651,452.772751689 C 177.021534821,440.734282877 189.76281443,429.035883806 198.468599785,408.813069908 C 205.474036438,371.632111619 208.625349366,333.748342534 204.975267486,296.045943976 L 200.078263223,254.217365902 C 194.115707107,234.833390697 157.886944092,243.743217896 135.623711751,242.745679991 C 113.768563098,246.622475032 91.8680718139,251.179409554 71.1011463307,259.273069376 C 52.193268762,251.587493242 21.1789084335,293.620113161 20,257.799433835 C 24.3755639937,240.161149964 51.399772701,245.14883949 66.1814707523,239.843751539 C 82.4594756616,237.871347045 98.125355038,232.906328834 113.791234414,229.006862477 C 135.079600166,226.172947973 156.209266706,222.02409714 177.588317722,220.323748438 C 192.370015773,216.356268132 193.276868414,193.775637367 192.868784726,177.338933245 C 191.100422075,166.207317075 192.188645245,154.100834315 183.346831993,145.531076856 C 167.431568141,138.389612307 146.392586865,110.889305963 166.252659707,95.3141118504 C 183.958957526,83.6837267272 195.680027913,90.7118346963 213.408997049,97.8759705617 C 199.738193483,125.988402438 235.853599918,157.070776715 258.071489627,130.159924588 C 270.132629755,108.894230152 278.521016686,85.7468164859 291.307638926,64.8438631066 C 301.373703243,48.2484597729 316.019373399,22.9926137159 335.19930676,20 C 344.947972652,48.1577745088 303.958233271,57.0676017084 301.146990083,83.4343422508 C 290.94489787,109.415670421 281.218903293,135.578369119 264.600828643,158.385713045 C 253.469212473,181.397098815 260.021222805,208.081237782 256.575182769,233.133041994 C 256.189770396,280.538763812 259.409097273,329.735519596 253.355855893,376.778500358 C 247.370628461,404.822918287 230.571183283,429.217254334 208.171923046,446.787524257 C 184.593754375,464.448479444 177.76968825,484.535265447 176.862835609,517.703400798 C 178.064415358,541.236226837 173.190082412,563.748843654 175.729269807,587.848452594 C 174.618375322,605.577421729 201.959982454,596.690265845 202.09601035,609.136818345 C 206.902329348,622.739607963 171.60309029,622.354195591 151.221577179,614.645948141 Z" />"
</svg>