<svg width="1019" height="999"
                xmlns="http://www.w3.org/2000/svg" > <path style="fill:none" stroke="black" stroke-width="3" d="M 20,20 h 611.4305321308049 v 599.9999999999999 H 20 V 20 Z" />
   <path style="fill:none" stroke="red" stroke-width="3" d="M 25.5650498476,613.890842233 C 57.2299696434,623.735480805 88.8048470132,602.035256148 98.2292875969,571.6909586 C 112.726118176,534.713535673 110.775198947,494.164429849 121.880431482,456.286582662 C 135.59689437,392.746644076 149.403399684,329.206705491 166.031234344,266.357092171 C 223.778443527,248.498677689 283.926784067,273.020231692 342.784516503,267.107445721 C 397.830452906,268.45808211 453.746799427,262.155112293 508.132424707,273.920655952 C 510.503541924,334.189053061 493.065325429,393.136827922 481.389824197,451.784461364 C 473.105921008,485.340272105 467.043064327,519.826521247 456.95831262,552.722020865 C 449.965017537,576.733334454 428.895089862,596.422611597 418.600239161,614.551153357 C 447.113674048,624.785975774 479.048721122,618.122836253 508.522608553,614.521139215 C 521.338647181,583.276417407 515.245776357,539.155628687 521.728831027,503.168672445 C 522.719297712,462.499510053 542.768744559,426.062341681 547.300879999,386.413660117 C 551.772987155,340.52203702 560.026876201,295.05061191 571.34220773,250.47961106 C 574.583735065,208.579868847 583.648005945,167.400466042 589.350692922,125.890907674 C 596.854228419,94.1059313107 611.170974146,64.0017468982 631.430519987,38.3996837837 C 631.460534129,4.93391546876 575.844329028,33.7174776338 561.017342887,48.3943930652 C 537.366199002,71.9254803827 550.932591179,74.8068380134 539.046990953,115.716113541 C 531.45341303,141.708360501 531.90362516,213.202046713 507.502127725,222.716529723 C 450.535286235,221.245836766 393.598458886,215.663206356 336.661631538,217.163913455 C 282.666190104,211.251127484 228.160508257,213.442159849 174.165066823,207.379303168 C 175.725802206,162.778288176 190.402717638,119.888079277 191.483226749,75.2270360012 C 197.24594201,62.200898379 231.251964881,19.7609016101 203.939095673,20.001014746 C 183.589507407,38.3096413578 147.842664301,43.4720737794 134.426342833,65.3523832876 C 148.112791579,95.2464687062 134.486371117,127.541685484 133.555932715,158.576308298 C 122.390671896,244.446768521 110.775198947,331.277681288 82.0816792082,413.276317195 C 66.3542688073,478.647118442 65.8140142515,551.281342049 22.353536655,606.267250168 C 20.9128578397,610.379187621 16.4707648257,617.16238371 25.5950639896,613.920856375 Z" />"
</svg>