<svg version="1.1"
     baseProfile="full"
     width="290" height="240"
     xmlns="http://www.w3.org/2000/svg">
<path
       d="
	m
	85,230
	c
	1.82,-8.07 2.75,-11.10 4.28,-19.56
	-13.24,-7.46 -49.14,-20.20 -43.66,-36.42
	16.08313,6.16 28.74,16.42 46.66,21.22
	10.34,-35.97 28.84,-90.14 37.53,-121.74
	-38.91,-16.40 -68.46,-26.26 -100.44,-40.17
	-12.57,-8.46 -30.39,-19.93 -26.60,-29.01
	11.12,4.34 21.52,9.25 32.72,17.12
	35.38,8.33 68.27,25.07 100.42,33.37
	3.97,-4.53 14.96,-26.74 14.26,-11.48
	l
	-0.89,15.62
	c
	30.33,11.66 67.12,30.40 94.23,39.59
	13.15,0.50 26.31,0.66 39.49,0.60
	5.38,16.45 -32.26,11.59 -42.21,13.04
	-38.22,-14.03 -62.04,-22.94 -98.74,-34.25
	-16.97,41.21 -28.76,83.06 -41.96,119.97
	14.03,6.28 25.58,12.29 40.91,17.81
	1.81,13.47 -34.91,-1.27 -46.63,-4.30
	-1.93,5.11 -4.53,11.30 -5.84,18.47
	-2.37,0.61 -3.52,0.12 -3.52,0.12
	z"
    style="fill:#000000"
/>
</svg>

