<?xml version="1.0" encoding="UTF-8" standalone="no"?>
<svg
   xmlns="http://www.w3.org/2000/svg"
   viewBox="0 0 180 200"
   height="200"
   width="180"
   id="svg159"
   version="1.1">
  <g
     id="g167">
    <path
       style="fill:#b30000;fill-opacity:1;stroke-width:1.07212"
       d="m 24,200
        c 5.21484,-21.14937
        12.29455,-64.35133
        17.86157,-84.23656
        4.75018,-19.30062
        7.98585,-44.629801
        12.30013,-54.298015
        27.37935,2.058386
        43.84434,-1.107208
        58.21371,3.004384
        14.0988,1.201816
        17.81198,0.393448
        29.80723,0.532656
        8.10206,-5.356021
        5.10913,-9.172711
        9.90068,-13.798004
        -14.67635,1.25792
        -4.88835,0.543231
        -18.24028,0.297278
        -41.09935,-0.09248
        -63.75774,-3.24418
        -78.07952,-4.194735
        0.26817,-8.920308
        1.9405,-14.347427
        6.73386,-27.807807
        18.0095,-2.483258
        78.16782,3.294177
        101.18378,1.817818
        6.84496,-8.808727
        2.86432,-5.458882
        11.12882,-14.833291
        -30.98344,-0.203905
        -46.33975,3.926236
        -70.54575,2.18004
        -11.15731,1.127878
        -39.42018,-5.154937
        -58.98344,-3.383875
        1.85283,13.879927
        -5.36052,42.003272
        -10.20133,57.909697
        -0.90243,21.186394
        -16.1768,82.757494
        -21.7946,106.153724
        -9.0612,18.8303
        -9.30504,27.912
        -17.98805,34.54322
        18.11914,-1.19239
        17.15014,-2.78548
        28.70319,-3.88653
        z"
       id="path1160"/>
  </g>
</svg>
