<svg xmlns="http://www.w3.org/2000/svg" width="180" height="200">  
  <g transform="translate(0.00,0.00)">
    <path d="
m 28.90,195.37 c 5.21,-21.15 12.29,-64.35 17.86,-84.24 4.75,-19.30 7.99,-44.63 12.30,-54.30 27.38,2.06 43.84,-1.11 58.21,3.00 14.10,1.20 17.81,0.39 29.81,0.53 8.10,-5.36 5.11,-9.17 9.90,-13.80 -14.68,1.26 -4.89,0.54 -18.24,0.30 -41.10,-0.09 -63.76,-3.24 -78.08,-4.19 0.27,-8.92 1.94,-14.35 6.73,-27.81 18.01,-2.48 78.17,3.29 101.18,1.82 6.84,-8.81 2.86,-5.46 11.13,-14.83 -30.98,-0.20 -46.34,3.93 -70.55,2.18 C 98.00,5.17 69.74,-1.12 50.18,0.65 52.03,14.53 44.82,42.66 39.98,58.56 39.07,79.75 23.80,141.32 18.18,164.72 9.12,183.55 8.88,192.63 0.19,199.26 18.31,198.07 17.34,196.48 28.90,195.37 Z 
    "
      style="fill:#b30000"
    />
  </g>
</svg>