<?xml version="1.0" encoding="UTF-8" standalone="no"?>
<svg
   xmlns:dc="http://purl.org/dc/elements/1.1/"
   xmlns:cc="http://creativecommons.org/ns#"
   xmlns:rdf="http://www.w3.org/1999/02/22-rdf-syntax-ns#"
   xmlns:svg="http://www.w3.org/2000/svg"
   xmlns="http://www.w3.org/2000/svg"
   xmlns:xlink="http://www.w3.org/1999/xlink"
   width="284.25748mm"
   height="240.59552mm"
   viewBox="0 0 284.25748 240.59552"
   version="1.1"
   id="svg8">
  <defs
     id="defs2">
    <style
       id="style419"
       type="text/css"><![CDATA[
    .outline { stroke:none; stroke-width:0 }
  ]]></style>
    <g
       id="heart">
      <path
         id="path421"
         d="M 0,200 V 0 h 200 a 100,100 90 0 1 0,200 100,100 90 0 1 -200,0 z" />
    </g>
    <clipPath
       clipPathUnits="userSpaceOnUse"
       id="clipPath447">
      <use
         id="use449"
         transform="matrix(-7.9131708,-8.8912884,7.9131708,-9.1463802,3078.5877,3955.8806)"
         fill="red"
         class="outline "
         xlink:href="#heart"
         x="0"
         y="0"
         width="100%"
         height="100%" />
    </clipPath>
    <clipPath
       clipPathUnits="userSpaceOnUse"
       id="clipPath451">
      <use
         id="use453"
         transform="matrix(-7.9131708,-8.8912884,7.9131708,-9.1463802,3078.5877,3955.8806)"
         fill="red"
         class="outline "
         xlink:href="#heart"
         x="0"
         y="0"
         width="100%"
         height="100%" />
    </clipPath>
    <clipPath
       clipPathUnits="userSpaceOnUse"
       id="clipPath455">
      <use
         id="use457"
         transform="matrix(-7.9131708,-8.8912884,7.9131708,-9.1463802,3078.5877,3955.8806)"
         fill="red"
         class="outline "
         xlink:href="#heart"
         x="0"
         y="0"
         width="100%"
         height="100%" />
    </clipPath>
    <clipPath
       clipPathUnits="userSpaceOnUse"
       id="clipPath459">
      <use
         id="use461"
         transform="matrix(-7.9131708,-8.8912884,7.9131708,-9.1463802,3078.5877,3955.8806)"
         fill="red"
         class="outline "
         xlink:href="#heart"
         x="0"
         y="0"
         width="100%"
         height="100%" />
    </clipPath>
  </defs>
  <metadata
     id="metadata5">
    <rdf:RDF>
      <cc:Work
         rdf:about="">
        <dc:format>image/svg+xml</dc:format>
        <dc:type
           rdf:resource="http://purl.org/dc/dcmitype/StillImage" />
        <dc:title></dc:title>
      </cc:Work>
    </rdf:RDF>
  </metadata>
  <g
     style="display:inline"
     id="layer1"
     transform="translate(36.021604,85.058297)">
    <g
       style="display:inline"
       id="g381">
      <path
         id="path171"
         style="fill:#b30000;fill-opacity:1;stroke-width:0.275425"
         d="m 21.572481,155.18813 c 4.02676,-0.54801 4.98769,-6.87715 8.21267,-9.2836 4.68903,-5.31367 6.82789,-9.99572 11.03985,-8.10665 6.34641,0.6678 16.79244,-0.73854 23.15995,0.0511 4.62492,0.0987 4.04028,-0.69779 4.9393,3.4014 1.20286,4.12335 0.89129,11.49347 3.82595,13.93777 7.32564,1.70668 5.11084,-5.23404 2.80989,-9.20841 -3.22433,-4.31673 -2.06968,-9.59318 -4.70731,-14.68342 -1.7593,-6.14208 -3.45941,-11.63276 -4.71249,-17.66805 -0.8616,-3.87988 -1.12203,-9.31436 -3.1455,-14.03153 -5.31578,1.41726 -5.7832,5.9054 -9.26303,9.18671 -2.95192,5.64629 -8.30294,11.46868 -11.89403,16.77098 -2.78729,5.85179 -8.20174,9.98659 -11.80089,15.42963 -3.3646,5.10238 -7.54435,9.35463 -11.76473,13.72625 -0.38296,0.97327 2.50816,0.30407 3.30037,0.47784 z m 22.38508,-20.49362 c -6.46805,1.61246 -3.94052,-3.06202 -1.03336,-5.86812 3.49738,-5.51387 9.51111,-13.29168 13.51444,-18.51842 2.79797,-5.14195 4.5055,-3.0538 4.8039,2.24104 2.48089,5.00132 3.63679,11.07724 4.80814,17.76887 2.95299,6.00016 -5.03651,3.75174 -9.21728,4.23691 -4.25959,0.77067 -8.56891,-0.0106 -12.87584,0.13972 z" />
      <path
         id="path1160"
         d="m 96.105219,154.44843 c 1.37976,-5.90664 3.25293,-17.97219 4.725871,-23.52579 1.25682,-5.39032 2.11293,-12.46431 3.25441,-15.16448 7.24412,0.57487 11.60048,-0.30922 15.40238,0.83907 3.73031,0.33565 4.71275,0.10989 7.8865,0.14876 2.14367,-1.49584 1.35179,-2.56178 2.61955,-3.85353 -3.88312,0.35131 -1.29338,0.15171 -4.82607,0.083 -10.87421,-0.0259 -16.86924,-0.90604 -20.65854,-1.17152 0.0709,-2.49128 0.51342,-4.00698 1.78166,-7.76623 4.76502,-0.69353 20.68191,0.92001 26.77155,0.50768 1.81106,-2.46012 0.75785,-1.52457 2.9445,-4.14267 -8.19771,-0.0569 -12.26073,1.09653 -18.66523,0.60885 -2.95204,0.315 -10.42993,-1.439685 -15.60604,-0.94506 0.49023,3.87643 -1.4183,11.73078 -2.699101,16.17316 -0.23877,5.91699 -4.28011,23.11272 -5.76649,29.64687 -2.39744,5.25897 -2.46196,7.79533 -4.75934,9.64732 4.79403,-0.33302 4.53764,-0.77794 7.59439,-1.08544 z"
         style="fill:#b30000;fill-opacity:1;stroke-width:0.291438" />
      <path
         style="fill:#b30000;fill-opacity:1;stroke-width:0.291438"
         d="m 152.61266,154.40649 c 1.37976,-5.90665 3.25293,-17.9722 4.72587,-23.52579 1.25682,-5.39032 2.11293,-12.46432 3.25441,-15.16448 7.24412,0.57486 11.60048,-0.30923 15.40238,0.83907 3.73031,0.33564 4.71275,0.10988 7.8865,0.14876 2.14367,-1.49584 1.35179,-2.56178 2.61955,-3.85354 -3.88312,0.35131 -1.29338,0.15172 -4.82607,0.083 -10.87421,-0.0259 -16.86924,-0.90605 -20.65854,-1.17152 0.0709,-2.49128 0.51342,-4.00699 1.78166,-7.76623 4.76502,-0.69353 20.68191,0.92 26.77155,0.50768 1.81106,-2.46012 0.75785,-1.52457 2.9445,-4.14268 -8.19771,-0.0569 -12.26073,1.09654 -18.66523,0.60886 -2.95204,0.315 -10.42993,-1.439682 -15.60604,-0.94506 0.49023,3.87642 -1.4183,11.73078 -2.6991,16.17316 -0.23877,5.91699 -4.28011,23.11272 -5.76649,29.64687 -2.39744,5.25897 -2.46196,7.79533 -4.75934,9.64731 4.79403,-0.33301 4.53764,-0.77793 7.59439,-1.08544 z"
         id="path1160-0" />
      <path
         d="m 192.03974,155.27213 c 4.02676,-0.54801 4.98769,-6.87716 8.21267,-9.2836 4.68903,-5.31368 6.82789,-9.99572 11.03985,-8.10666 6.34641,0.66781 16.79244,-0.73854 23.15995,0.0511 4.62492,0.0987 4.04028,-0.69779 4.9393,3.4014 1.20286,4.12335 0.89129,11.49347 3.82595,13.93778 7.32564,1.70667 5.11084,-5.23405 2.80989,-9.20841 -3.22433,-4.31673 -2.06968,-9.59319 -4.70731,-14.68343 -1.7593,-6.14207 -3.45941,-11.63276 -4.71249,-17.66804 -0.8616,-3.87989 -1.12203,-9.31436 -3.1455,-14.031543 -5.31578,1.417273 -5.7832,5.905413 -9.26303,9.186723 -2.95192,5.64629 -8.30294,11.46867 -11.89403,16.77098 -2.78729,5.85179 -8.20174,9.98659 -11.80089,15.42962 -3.3646,5.10238 -7.54435,9.35463 -11.76473,13.72626 -0.38296,0.97326 2.50816,0.30406 3.30037,0.47784 z m 22.38508,-20.49362 c -6.46805,1.61245 -3.94052,-3.06202 -1.03336,-5.86812 3.49738,-5.51388 9.51111,-13.29168 13.51444,-18.51843 2.79797,-5.14194 4.5055,-3.05379 4.8039,2.24104 2.48089,5.00132 3.63679,11.07725 4.80814,17.76888 2.95299,6.00016 -5.03651,3.75174 -9.21728,4.2369 -4.25959,0.77067 -8.56891,-0.0105 -12.87584,0.13973 z"
         style="fill:#b30000;fill-opacity:1;stroke-width:0.275425"
         id="path171-2" />
      <path
         id="path171-4"
         style="fill:#b30000;fill-opacity:1;stroke-width:0.269801"
         d="m -35.528738,154.68264 c 2.79032,0.91697 5.64595,-1.10281 6.47719,-3.92602 1.279,-3.4398 1.03508,-7.21281 2.01419,-10.73769 1.21019,-5.91183 2.42548,-11.82582 3.89131,-17.67412 5.08929,-1.66299 10.39283,0.6207 15.5812797,0.0692 4.8526791,0.12626 9.7816692,-0.45972 14.5764793,0.6343 0.20923,5.60891 -1.3271601,11.09252 -2.3577001,16.55057 -0.73109,3.1228 -1.26546,6.33019 -2.15256,9.39261 -0.61533,2.23424 -2.47511003,4.06701 -3.38203003,5.7542 2.51346003,0.95194 5.32791003,0.3337 7.92577013,-0.002 1.13098,-2.90743 0.59321,-7.0126 1.16473,-10.36126 0.0861,-3.7835 1.85515,-7.17497 2.2544,-10.86279 0.39312,-4.27017 1.12112,-8.50226 2.11801,-12.64987 0.28706,-3.89889 1.08582,-7.73059 1.58827,-11.59417 0.66169,-2.95691 1.922751,-5.75855 3.708181,-8.13976 0.003,-3.113124 -4.901111,-0.43648 -6.208411,0.93133 -2.0851201,2.18861 -2.1842601,5.57455 -2.6561401,8.46916 -0.6678799,2.41135 0.093,6.86107 -2.0599399,7.74542 -5.0203901,-0.13702 -10.0409302,-0.65521 -15.0601493,-0.51715 -4.7599197,-0.54954 -9.5648197,-0.34695 -14.3238297,-0.91022 0.13651,-4.1492 1.43046,-8.13996 1.52576,-12.29602 0.50799,-1.21222 3.50563,-5.159919 1.09889,-5.139689 -1.79359,1.704019 -4.946,2.184029 -6.12788,4.219469 1.20695,2.78188 0.006,5.78676 -0.0777,8.67585 -0.98326,7.99072 -2.00717,16.06854 -4.53738,23.69977 -1.38709,6.08291 -1.43347,12.84164 -5.26597,17.95749 -0.12649,0.38287 -0.51928,1.0134 0.28527,0.71104 z" />
      <path
         id="path2303"
         style="fill:#000000;stroke-width:0.298667"
         d="m 138.02538,127.83182 c -0.0499,-2.69873 -0.0995,-5.39746 -0.14929,-8.09618 -3.20251,0.84673 -7.09062,2.87029 -6.51732,5.83622 0.2713,2.31667 -1.98785,1.97914 -2.43151,0.0657 -1.91758,-2.03307 -2.97075,-3.99942 0.88968,-4.7458 3.26945,-1.28707 6.13172,-3.01475 9.0004,-4.76672 2.14717,-1.40498 5.45987,-2.53455 5.33663,-5.13109 1.04053,-4.33849 1.51116,-8.76001 0.96926,-13.160975 -0.11837,-1.68613 -0.23668,-3.37227 -0.35503,-5.0584 -2.52932,-2.20464 -6.64741,-1.04783 -9.95753,-1.16404 -3.25031,0.45281 -6.50814,0.98524 -9.59417,1.93011 -2.81033,-0.89616 -7.4246,4.00832 -7.59854,-0.17237 0.65169,-2.05809 4.67004,-1.47538 6.86862,-2.09438 2.42138,-0.22995 4.74953,-0.81094 7.07887,-1.26424 3.1659,-0.33184 6.30814,-0.81592 9.48598,-1.01284 2.04791,-1.05015 2.93175,-3.15745 2.27146,-5.01715 -0.2609,-1.29824 -0.0967,-2.71168 -1.4117,-3.71046 -2.36717,-1.01018 -5.87091,-4.10107 -2.91675,-5.92051 2.48358,-0.0101 4.97313,-0.0687 7.45947,-0.11124 -2.03254,3.27995 3.26197,7.37475 6.56435,4.23611 1.79255,-2.48123 3.03989,-5.18407 4.94299,-7.62378 1.49775,-1.93601 3.67437,-4.8833 6.52693,-5.2324 1.44992,3.28719 -4.64487,4.32476 -5.06491,7.40364 -1.53969,3.03175 -2.96329,6.08647 -5.43483,8.74649 -1.6562,2.68652 -0.15975,5.97458 -0.67124,8.90021 -0.058,5.53314 -0.10128,11.098415 -1.0019,16.589445 -0.88906,3.27417 -3.38907,6.12064 -6.71869,8.17066 -3.50521,2.0606 -5.86541,4.6406 -5.02942,8.21832 0.17932,2.74541 -0.39643,5.48953 0.65272,8.1852 -0.76108,2.30401 2.03429,1.73414 3.47382,2.54182 -0.77957,1.29581 -5.50509,0.83968 -6.66835,0.40749 0,-2.31626 0,-4.63253 0,-6.94879 z M 117.29122,62.612025 c 0.17197,-1.06944 0.946,1.0381 0,0 z" />
      <g
         transform="matrix(0.04409722,0,0,0.04464546,-39.353578,-82.92014)"
         id="g636">
        <g
           clip-path="url(#clipPath459)"
           id="g445">
          <rect
             y="0"
             x="0"
             width="7410"
             height="3900"
             fill="#b22234"
             id="rect306" />
        </g>
        <path
           clip-path="url(#clipPath455)"
           id="path308"
           stroke-width="300"
           stroke="#fff"
           d="m 0,450 h 7410 m 0,600 H 0 m 0,600 h 7410 m 0,600 H 0 m 0,600 h 7410 m 0,600 H 0" />
        <rect
           y="0"
           x="0"
           clip-path="url(#clipPath451)"
           id="rect310"
           fill="#3c3b6e"
           height="2100"
           width="3070.9485" />
        <g
           clip-path="url(#clipPath447)"
           id="g335"
           fill="#fff">
          <g
             id="s18">
            <g
               id="s9">
              <g
                 id="s5">
                <g
                   id="s4">
                  <path
                     d="M 247,90 317.53423,307.08204 132.87322,172.91796 H 361.12678 L 176.46577,307.08204 Z"
                     id="s" />
                  <use
                     height="100%"
                     width="100%"
                     x="0"
                     id="use313"
                     y="420"
                     xlink:href="#s" />
                  <use
                     height="100%"
                     width="100%"
                     x="0"
                     id="use315"
                     y="840"
                     xlink:href="#s" />
                  <use
                     height="100%"
                     width="100%"
                     x="0"
                     id="use317"
                     y="1260"
                     xlink:href="#s" />
                </g>
                <use
                   height="100%"
                   width="100%"
                   x="0"
                   id="use320"
                   y="1680"
                   xlink:href="#s" />
              </g>
              <use
                 height="100%"
                 width="100%"
                 id="use323"
                 y="210"
                 x="247"
                 xlink:href="#s4" />
            </g>
            <use
               height="100%"
               width="100%"
               y="0"
               id="use326"
               x="494"
               xlink:href="#s9" />
          </g>
          <use
             height="100%"
             width="100%"
             y="0"
             id="use329"
             x="988"
             xlink:href="#s18" />
          <use
             height="100%"
             width="100%"
             y="0"
             id="use331"
             x="1976"
             xlink:href="#s9" />
          <use
             height="100%"
             width="100%"
             y="0"
             id="use333"
             x="2470"
             xlink:href="#s5" />
        </g>
      </g>
      <path
         id="path2505"
         style="fill:#000000;stroke-width:0.264583"
         d="m 173.09475,71.304424 c 0.48183,-2.13507 0.72671,-2.93639 1.13312,-5.17477 -3.50203,-1.97368 -13.00173,-5.34519 -11.55288,-9.63671 4.25532,1.6286 7.60427,4.34436 12.34479,5.61458 2.73497,-9.51709 7.63013,-23.85015 9.93039,-32.20935 -10.2938,-4.33937 -18.11257,-6.94836 -26.57586,-10.62757 -3.32572,-2.23945 -8.04133,-5.27297 -7.03799,-7.67429 2.94177,1.14741 5.69357,2.44718 8.65684,4.5308 9.36126,2.20425 18.06413,6.63201 26.56933,8.8291 1.05016,-1.1985 3.95688,-7.07557 3.77349,-3.0386 l -0.23555,4.13207 c 8.0253,3.08552 17.75856,8.04391 24.93105,10.47476 3.47983,0.13273 6.95988,0.17423 10.44845,0.15836 1.42452,4.35333 -8.53563,3.06542 -11.16747,3.44945 -10.11342,-3.7111 -16.41586,-6.06982 -26.12457,-9.06256 -4.48983,10.90241 -7.60996,21.97723 -11.10296,31.74194 3.7116,1.66064 6.76918,3.25119 10.82514,4.71176 0.47817,3.56305 -9.23666,-0.33645 -12.33866,-1.13708 -0.51108,1.3529 -1.19755,2.99015 -1.54606,4.88718 -0.62599,0.16066 -0.9306,0.0309 -0.9306,0.0309 z" />
    </g>
  </g>
</svg>
