<?xml version="1.0" encoding="UTF-8" standalone="no"?>
<svg
   xmlns:dc="http://purl.org/dc/elements/1.1/"
   xmlns:cc="http://creativecommons.org/ns#"
   xmlns:rdf="http://www.w3.org/1999/02/22-rdf-syntax-ns#"
   xmlns:svg="http://www.w3.org/2000/svg"
   xmlns="http://www.w3.org/2000/svg"
   xmlns:sodipodi="http://sodipodi.sourceforge.net/DTD/sodipodi-0.dtd"
   xmlns:inkscape="http://www.inkscape.org/namespaces/inkscape"
   inkscape:version="1.0 (4035a4f, 2020-05-01)"
   sodipodi:docname="haffa-letter-F.svg"
   id="svg12"
   version="1.1"
   height="200"
   width="180">
  <metadata
     id="metadata18">
    <rdf:RDF>
      <cc:Work
         rdf:about="">
        <dc:format>image/svg+xml</dc:format>
        <dc:type
           rdf:resource="http://purl.org/dc/dcmitype/StillImage" />
        <dc:title></dc:title>
      </cc:Work>
    </rdf:RDF>
  </metadata>
  <defs
     id="defs16" />
  <sodipodi:namedview
     inkscape:current-layer="svg12"
     inkscape:window-maximized="0"
     inkscape:window-y="23"
     inkscape:window-x="0"
     inkscape:cy="62.585034"
     inkscape:cx="90"
     inkscape:zoom="3.675"
     showgrid="false"
     id="namedview14"
     inkscape:window-height="849"
     inkscape:window-width="1292"
     inkscape:pageshadow="2"
     inkscape:pageopacity="0"
     guidetolerance="10"
     gridtolerance="10"
     objecttolerance="10"
     borderopacity="1"
     bordercolor="#666666"
     pagecolor="#ffffff" />
  <path
     id="path10"
     style="fill:#b30000"
     d="m 28.897959,195.37415 c 5.21484,-21.14937 12.29455,-64.35133 17.86157,-84.23656 4.75018,-19.30062 7.98585,-44.629801 12.30013,-54.298015 27.37935,2.058386 43.844341,-1.107208 58.213711,3.004384 14.0988,1.201816 17.81198,0.393448 29.80723,0.532656 8.10206,-5.356021 5.10913,-9.172711 9.90068,-13.798004 -14.67635,1.25792 -4.88835,0.543231 -18.24028,0.297278 -41.099351,-0.09248 -63.757741,-3.24418 -78.079521,-4.194735 0.26817,-8.920308 1.9405,-14.347427 6.73386,-27.807807 18.0095,-2.483258 78.167821,3.294177 101.183781,1.817818 6.84496,-8.8087273 2.86432,-5.458882 11.12882,-14.8332913 -30.98344,-0.203905 -46.33975,3.926236 -70.54575,2.18004 C 98.004879,5.1657917 69.742009,-1.1170233 50.178749,0.65403866 52.031579,14.533966 44.818229,42.657311 39.977419,58.563736 39.074989,79.75013 23.800619,141.32123 18.182819,164.71746 9.1216192,183.54776 8.8777792,192.62946 0.19476919,199.26068 18.313909,198.06829 17.344909,196.4752 28.897959,195.37415 Z" />
</svg>
