<svg
 xmlns="http://www.w3.org/2000/svg"
 width="1265" height="1020"
>
    <path d="M 10,10 h 1245 v 1000 h -1245 v -1000 Z" style="fill:none;stroke:black;stroke-width=3" />
    <path d="M 376.359908736,1009.17585649 C 384.417778547,973.446730466 388.535261472,960.031705452 395.309184994,922.575893036 C 336.690395823,889.547481616 177.746700112,833.142392943 202.008857563,761.329948808 C 273.201465559,788.602738936 329.252362152,834.027873142 408.591387978,855.279397916 C 454.370714264,696.025784135 536.277632666,456.19347225 574.751747311,316.287600816 C 402.481574605,243.678224503 271.651875211,200.024050694 130.063591399,138.438902857 C 74.4111608947,100.983090442 -4.48512483159,50.2008010323 12.2947249385,10 C 61.527424,29.2149203172 107.572394345,50.9534592014 157.159285486,85.79710503 C 313.80073268,122.677355316 459.417951398,196.792047968 601.758893379,233.539476225 C 619.335675328,213.483349718 667.99281226,115.150773625 664.893631564,182.712912805 L 660.953244678,251.868916343 C 795.236316849,303.492411942 958.120399445,386.461906583 1078.14724041,427.149721725 C 1136.36756349,429.363422222 1194.63216058,430.071806381 1252.9853057,429.806162322 C 1276.80472305,502.636908685 1110.1573496,481.119739851 1066.10470971,487.539471293 C 896.889443688,425.423035337 791.428751993,385.974892474 628.943135486,335.900987223 C 553.810140606,518.354182216 501.611082877,703.640913846 443.169389747,867.056284562 C 505.285825703,894.860362809 556.422307192,921.469042788 624.294364442,945.908296279 C 632.307960242,1005.54538768 469.733795715,940.285497015 417.844656057,926.870472001 C 409.299772137,949.494491084 397.788529551,976.900103242 391.988634248,1008.64456837 C 381.49569389,1011.34528298 376.404182746,1009.17585649 376.404182746,1009.17585649 Z" />
</svg>
    