<svg
 xmlns="http://www.w3.org/2000/svg"
 width="1039" height="1019"
>
    <path d="M 10,10 h 1019 v 1000 h -1019 v -1000 Z" style="fill:none;stroke:black;stroke-width=3" />
    <path d="M 19.2750830793,999.818070388 C 72.0499494056,1016.22580134 124.674745022,980.058760247 140.382145995,929.484931 C 164.543530294,867.855892788 161.291998245,800.274049748 179.800719137,737.144304436 C 202.661490617,631.244406794 225.672332807,525.344509152 253.385390574,420.595153619 C 349.630739211,390.831129482 449.877973446,431.700386154 547.974194172,421.845742868 C 639.71742151,424.096803517 732.911332379,413.591853822 823.554041178,433.201093253 C 827.505903206,533.648421768 798.442209049,631.894713204 778.983040328,729.64076894 C 765.176535014,785.567120175 755.071773879,843.044202079 738.263854366,897.870034774 C 726.608362561,937.888890756 691.491816437,970.704352661 674.333731935,1000.91858893 C 721.856123414,1017.97662629 775.08120187,1006.87139376 824.204347588,1000.86856536 C 845.564411968,948.794029011 835.409627262,875.259381144 846.214718378,815.281120741 C 847.865496187,747.499183422 881.281240932,686.770569469 888.834799998,620.689433529 C 896.288311925,544.203395033 910.044793669,468.417686517 928.90367955,394.132685101 C 934.306225108,324.299781412 949.413343241,255.667443403 958.917821537,186.484846124 C 971.423714031,133.509885518 995.284956911,83.3362448304 1029.05086665,40.6661396395 C 1029.10089022,-15.1101408854 936.407215047,32.862462723 911.695571478,57.323988442 C 872.276998336,96.5424673044 894.887651966,101.344730022 875.078318255,169.526855902 C 862.42235505,212.847267502 863.1727086,332.003411189 822.503546208,347.860882871 C 727.558810391,345.409727943 632.664098144,336.105343927 537.769385896,338.606522426 C 447.776983507,328.75187914 356.934180428,332.403599748 266.941778038,322.298838613 C 269.543003677,247.963813626 294.004529396,176.480132128 295.805377915,102.045060002 C 305.409903351,80.3348306317 362.086608135,9.6015026835 316.565159456,10.0016912433 C 282.649179011,40.5160689296 223.071107168,49.1201229657 200.710571388,85.5873054793 C 223.521319298,135.410781177 200.810618528,189.236142473 199.259887858,240.96051383 C 180.651119827,384.077947535 161.291998245,528.79613548 113.469465347,665.460528659 C 87.2571146788,774.41186407 86.3566904192,895.468903415 13.9225610917,987.112083614 C 11.5214297328,993.965312701 4.11794137614,1005.27063952 19.3251066493,999.868093958 Z" />
</svg>
    